HIERARCHY
ROOT Hips
{
	OFFSET 0.00 0.00 0.00
	CHANNELS 6 Xposition Yposition Zposition Xrotation Yrotation Zrotation
	JOINT RightUpLeg
	{
		OFFSET -4.47808 0.00000 0.00000
		CHANNELS 3 Xrotation Yrotation Zrotation
		JOINT RightLeg
		{
			OFFSET 0.00000 -16.40577 0.00000
			CHANNELS 3 Xrotation Yrotation Zrotation
			JOINT RightFoot
			{
				OFFSET 0.00000 -14.64414 0.00000
				CHANNELS 3 Xrotation Yrotation Zrotation
				JOINT RightToeBase
				{
					OFFSET 0.00000 -1.50274 5.60831
					CHANNELS 3 Xrotation Yrotation Zrotation
					End Site
					{
						OFFSET 0.00000 0.00000 2.95275
					}
				}
			}
		}
	}
	JOINT LeftUpLeg
	{
		OFFSET 4.47808 0.00000 0.00000
		CHANNELS 3 Xrotation Yrotation Zrotation
		JOINT LeftLeg
		{
			OFFSET 0.00000 -16.40577 0.00000
			CHANNELS 3 Xrotation Yrotation Zrotation
			JOINT LeftFoot
			{
				OFFSET 0.00000 -14.64414 0.00000
				CHANNELS 3 Xrotation Yrotation Zrotation
				JOINT LeftToeBase
				{
					OFFSET 0.00000 -1.50274 5.60831
					CHANNELS 3 Xrotation Yrotation Zrotation
					End Site
					{
						OFFSET 0.00000 0.00000 2.95275
					}
				}
			}
		}
	}
	JOINT Spine
	{
		OFFSET 0.00000 6.06821 0.00000
		CHANNELS 3 Xrotation Yrotation Zrotation
		JOINT RightShoulder
		{
			OFFSET 0.00000 10.01392 0.00000
			CHANNELS 3 Xrotation Yrotation Zrotation
			JOINT RightArm
			{
				OFFSET -7.19022 0.00000 0.00000
				CHANNELS 3 Xrotation Yrotation Zrotation
				JOINT RightForeArm
				{
					OFFSET -10.17747 0.00000 0.00000
					CHANNELS 3 Yrotation Zrotation Xrotation
					JOINT RightHand
					{
						OFFSET -8.39211 0.00000 0.00000
						CHANNELS 3 Xrotation Yrotation Zrotation
						End Site
						{
							OFFSET -3.93700 0.00000 0.00000
						}
						JOINT RightHandThumb1
						{
							OFFSET 0.00000 0.00000 0.00000
							CHANNELS 3 Xrotation Zrotation Yrotation
							End Site
							{
								OFFSET 0.00000 0.00000 3.93700
							}
						}
					}
				}
			}
		}
		JOINT LeftShoulder
		{
			OFFSET 0.00000 10.01392 0.00000
			CHANNELS 3 Xrotation Yrotation Zrotation
			JOINT LeftArm
			{
				OFFSET 7.19022 0.00000 0.00000
				CHANNELS 3 Xrotation Yrotation Zrotation
				JOINT LeftForeArm
				{
					OFFSET 10.17747 0.00000 0.00000
					CHANNELS 3 Yrotation Zrotation Xrotation
					JOINT LeftHand
					{
						OFFSET 8.39211 0.00000 0.00000
						CHANNELS 3 Xrotation Yrotation Zrotation
						End Site
						{
							OFFSET 3.93700 0.00000 0.00000
						}
						JOINT LeftHandThumb1
						{
							OFFSET 0.00000 0.00000 0.00000
							CHANNELS 3 Xrotation Zrotation Yrotation
							End Site
							{
								OFFSET 0.00000 0.00000 3.93700
							}
						}
					}
				}
			}
		}
		JOINT Head
		{
			OFFSET 0.00000 15.77748 0.00000
			CHANNELS 3 Xrotation Yrotation Zrotation
			End Site
			{
				OFFSET 0.00000 4.52755 0.00000
			}
		}
	}
}
MOTION
Frames: 13
Frame Time: 0.008333
 -4.8675 33.0728 -1.1397 7.4699 0.1653 3.2662 1.0101 -4.0113 1.2506 -0.0846 -0.0000 0.0000 -12.9741 -5.3979 -5.6195 2.8475 0.0000 -0.0000 -0.6712 -0.5792 -2.6693 1.8394 0.0000 -0.0000 -11.3098 9.2210 -8.2027 9.4442 -0.0000 0.0000 -10.6501 -4.5677 -3.1309 0.4385 -21.0892 -28.2927 -36.7414 -8.2589 35.8873 11.3143 0.0000 6.7178 -0.6548 5.9965 6.2434 32.8623 0.0000 -24.3270 -10.1592 19.6396 31.7661 -39.9918 10.9168 -30.0010 -11.3852 -0.0000 3.8030 -0.2781 2.8425 5.5900 33.1476 -0.0000 26.2537 1.1678 2.0313 1.3889
 -4.8681 33.0727 -1.1387 7.4595 0.1668 3.2653 1.0305 -4.0186 1.2515 -0.1010 -0.0000 -0.0000 -12.9676 -5.3808 -5.6134 2.9073 0.0000 0.0000 -0.6576 -0.5796 -2.6670 1.8367 0.0000 -0.0000 -11.3104 9.2219 -8.2106 9.4538 0.0000 -0.0000 -10.6439 -4.5657 -3.1352 0.4408 -21.1032 -28.2716 -36.7681 -8.2537 35.8818 11.3047 0.0000 6.7367 -0.6613 6.0188 6.2817 32.8623 0.0000 -24.3270 -10.2003 19.6188 31.7967 -39.9541 10.9265 -30.0009 -11.3778 -0.0000 3.7961 -0.2864 2.9026 5.6368 33.1476 -0.0000 26.2537 1.1684 2.0330 1.4014
 -4.8677 33.0726 -1.1391 7.4571 0.1665 3.2702 1.0346 -4.0159 1.2460 -0.1079 -0.0000 0.0000 -12.9662 -5.3892 -5.5981 2.8961 0.0000 0.0000 -0.6589 -0.5796 -2.6730 1.8426 -0.0000 0.0000 -11.3092 9.2222 -8.2116 9.4456 -0.0000 0.0000 -10.6496 -4.5663 -3.1349 0.4314 -21.0931 -28.2778 -36.7496 -8.2574 35.8840 11.3126 0.0000 6.7146 -0.6584 6.0032 6.2708 32.8623 0.0000 -24.3270 -10.1841 19.6394 31.7950 -39.9967 10.9369 -29.9984 -11.3763 -0.0000 3.7577 -0.2730 2.8386 5.4960 33.1476 -0.0000 26.2537 1.1749 2.0543 1.3960
 -4.8671 33.0726 -1.1390 7.4546 0.1653 3.2687 1.0402 -4.0159 1.2467 -0.1133 -0.0000 -0.0000 -12.9678 -5.3928 -5.5961 2.9090 -0.0000 0.0000 -0.6573 -0.5846 -2.6730 1.8442 -0.0000 0.0000 -11.3140 9.2272 -8.2006 9.4303 0.0000 -0.0000 -10.6548 -4.5562 -3.1241 0.4247 -21.0999 -28.2893 -36.7537 -8.2726 35.8919 11.3234 0.0000 6.7391 -0.6563 5.9932 6.2613 32.8623 0.0000 -24.3270 -10.1885 19.6341 31.7987 -40.0042 10.9476 -29.9957 -11.3657 -0.0000 3.7792 -0.2684 2.8366 5.4084 33.1476 -0.0000 26.2537 1.1868 2.0579 1.3885
 -4.8669 33.0727 -1.1392 7.4507 0.1756 3.2693 1.0478 -4.0430 1.2468 -0.1205 -0.0000 -0.0000 -12.9601 -5.3786 -5.5995 2.8795 0.0000 -0.0000 -0.6602 -0.5828 -2.6741 1.8540 0.0000 0.0000 -11.3147 9.2181 -8.2075 9.4350 0.0000 0.0000 -10.6586 -4.5646 -3.1208 0.4450 -21.1090 -28.2844 -36.7620 -8.2700 35.8932 11.3345 0.0000 6.7122 -0.6581 5.9801 6.2916 32.8623 0.0000 -24.3270 -10.1869 19.6396 31.8004 -40.0128 10.9478 -29.9891 -11.3522 -0.0000 3.7952 -0.2659 2.8479 5.3365 33.1476 -0.0000 26.2537 1.1966 2.0702 1.3861
 -4.8668 33.0728 -1.1399 7.4475 0.1727 3.2691 1.0482 -4.0259 1.2474 -0.1181 0.0000 0.0000 -12.9605 -5.3984 -5.5990 2.9045 0.0000 -0.0000 -0.6606 -0.6112 -2.6754 1.8577 -0.0000 0.0000 -11.3207 9.2512 -8.1882 9.4717 -0.0000 -0.0000 -10.6571 -4.5586 -3.1178 0.4294 -21.1058 -28.3032 -36.7644 -8.3173 35.9127 11.3396 0.0000 6.7361 -0.6861 6.2063 6.3206 32.8623 0.0000 -24.3270 -10.1937 19.6360 31.8055 -39.9937 10.9368 -29.9903 -11.3326 -0.0000 3.8200 -0.2695 2.8670 5.3721 33.1476 -0.0000 26.2537 1.1880 2.0755 1.4002
 -4.8670 33.0732 -1.1400 7.4443 0.1742 3.2681 1.0538 -4.0397 1.2492 -0.1221 0.0000 -0.0000 -12.9548 -5.3838 -5.6044 2.8807 0.0000 0.0000 -0.6590 -0.6135 -2.6730 1.8586 -0.0000 -0.0000 -11.3110 9.2425 -8.1914 9.4140 -0.0000 0.0000 -10.6593 -4.5575 -3.1133 0.4260 -21.1038 -28.3029 -36.7661 -8.3318 35.9111 11.3501 0.0000 6.7612 -0.6882 6.2185 6.3279 32.8623 0.0000 -24.3270 -10.1949 19.6427 31.8118 -40.0095 10.9584 -29.9836 -11.3467 -0.0000 3.7758 -0.2667 2.8858 5.2821 33.1476 -0.0000 26.2537 1.1902 2.0739 1.4008
 -4.8673 33.0730 -1.1402 7.4413 0.1723 3.2648 1.0581 -4.0453 1.2526 -0.1247 0.0000 -0.0000 -12.9565 -5.3762 -5.6063 2.9121 -0.0000 -0.0000 -0.6586 -0.6034 -2.6695 1.8637 0.0000 -0.0000 -11.3160 9.2331 -8.1842 9.4352 0.0000 -0.0000 -10.6587 -4.5569 -3.1091 0.4452 -21.1140 -28.2888 -36.7873 -8.3343 35.9088 11.3649 0.0000 6.7673 -0.6825 6.1822 6.3121 32.8623 0.0000 -24.3270 -10.1918 19.6542 31.8194 -40.0130 10.9646 -29.9820 -11.3538 -0.0000 3.7564 -0.2672 2.9041 5.2581 33.1476 -0.0000 26.2537 1.1697 2.0797 1.4246
 -4.8675 33.0731 -1.1399 7.4332 0.1776 3.2671 1.0691 -4.0563 1.2507 -0.1307 -0.0000 0.0000 -12.9519 -5.3661 -5.6082 2.9063 -0.0000 0.0000 -0.6504 -0.6232 -2.6719 1.8616 0.0000 -0.0000 -11.3171 9.2511 -8.1926 9.4502 0.0000 0.0000 -10.6546 -4.5528 -3.1145 0.4524 -21.1160 -28.2790 -36.7829 -8.3467 35.9011 11.3784 0.0000 6.7762 -0.6838 6.2010 6.3050 32.8623 0.0000 -24.3270 -10.1863 19.6561 31.8315 -40.0325 10.9965 -29.9852 -11.3857 -0.0000 3.7683 -0.2678 2.9405 5.2052 33.1476 -0.0000 26.2537 1.1643 2.0846 1.4434
 -4.8673 33.0730 -1.1401 7.4307 0.1769 3.2654 1.0689 -4.0460 1.2521 -0.1272 0.0000 0.0000 -12.9565 -5.3832 -5.6004 2.9196 -0.0000 0.0000 -0.6493 -0.6272 -2.6709 1.8635 0.0000 0.0000 -11.3201 9.2497 -8.1754 9.4311 0.0000 -0.0000 -10.6531 -4.5435 -3.1066 0.4413 -21.1182 -28.2741 -36.7565 -8.3154 35.8884 11.3626 0.0000 6.7587 -0.6799 6.1672 6.3034 32.8623 0.0000 -24.3270 -10.2000 19.6522 31.8300 -40.0302 10.9993 -29.9753 -11.3863 -0.0000 3.8171 -0.2650 2.9518 5.1322 33.1476 -0.0000 26.2537 1.1543 2.0872 1.4437
 -4.8667 33.0728 -1.1415 7.4316 0.1833 3.2655 1.0667 -4.0375 1.2515 -0.1280 0.0000 -0.0000 -12.9535 -5.3968 -5.6133 2.8796 -0.0000 0.0000 -0.6583 -0.6436 -2.6723 1.8735 0.0000 0.0000 -11.3255 9.2637 -8.1905 9.4442 0.0000 -0.0000 -10.6564 -4.5463 -3.1053 0.4397 -21.1211 -28.2868 -36.7650 -8.3464 35.9060 11.3828 0.0000 6.7265 -0.6903 6.1729 6.3931 32.8623 0.0000 -24.3270 -10.2118 19.6432 31.8421 -40.0016 11.0039 -29.9733 -11.3682 -0.0000 3.8654 -0.2854 3.0457 5.3559 33.1476 -0.0000 26.2537 1.1409 2.1412 1.4247
 -4.8666 33.0727 -1.1423 7.4307 0.1862 3.2694 1.0653 -4.0366 1.2475 -0.1266 0.0000 0.0000 -12.9521 -5.3998 -5.6080 2.8555 0.0000 -0.0000 -0.6593 -0.6474 -2.6755 1.8727 0.0000 -0.0000 -11.3250 9.2666 -8.2093 9.4875 0.0000 0.0000 -10.6552 -4.5418 -3.1125 0.4463 -21.1273 -28.2724 -36.7470 -8.3292 35.8995 11.3779 0.0000 6.6929 -0.6870 6.1550 6.3815 32.8623 0.0000 -24.3270 -10.2121 19.6558 31.8530 -40.0054 11.0020 -29.9820 -11.3695 -0.0000 3.8475 -0.2760 3.0013 5.2567 33.1476 -0.0000 26.2537 1.1229 2.1370 1.4466
 -4.8662 33.0729 -1.1425 7.4276 0.1857 3.2656 1.0663 -4.0316 1.2495 -0.1222 0.0000 -0.0000 -12.9531 -5.3978 -5.6194 2.8727 -0.0000 0.0000 -0.6586 -0.6425 -2.6733 1.8763 0.0000 -0.0000 -11.3199 9.2637 -8.1963 9.4512 0.0000 0.0000 -10.6539 -4.5314 -3.0949 0.4523 -21.1426 -28.2863 -36.7649 -8.3480 35.9077 11.3829 0.0000 6.7229 -0.6857 6.1598 6.3647 32.8623 0.0000 -24.3270 -10.2080 19.6524 31.8345 -39.9913 10.9875 -29.9732 -11.3604 -0.0000 3.7948 -0.2683 2.9693 5.1645 33.1476 -0.0000 26.2537 1.1076 2.1289 1.4447
